# xmcd
#
# Track frame offsets: 
#        150
#        18643
#        51725
#        68011
#        98368
#        122295
#        149293
#        173461
#
# Disc length: 2697 seconds
#
# Revision: 0
# Processed by: cddbd v1.5.2PL0 Copyright (c) Steve Scherf et al.
# Submitted via: ExactAudioCopy v1.0b1
#
DISCID=610a8708
DTITLE=Chris Russell's Chicken Walk - Chris Russell's Chicken Walk
DYEAR=2012
DGENRE=Blues
TTITLE0=Evil
TTITLE1=Skinny Girl
TTITLE2=Lying To Myself
TTITLE3=Jesus Goona Make Up My Dyin' Bed
TTITLE4=Work Me In The Daytime
TTITLE5=Bad Things Too
TTITLE6=Strange
TTITLE7=Ride Me
EXTD=
EXTT0=
EXTT1=
EXTT2=
EXTT3=
EXTT4=
EXTT5=
EXTT6=
EXTT7=
PLAYORDER=
